PathFileType	4	(X/Y/Z)	0_coords_data.trc
DataRate	CameraRate	NumFrames	NumMarkers	Units	OrigDataRate	OrigDataStartFrame	OrigNumFrames
30.0	30.0	5	21	m	30.0	30	59
Frame#	Time	THUMB_TIP	THUMB_IP	THUMB_MCP	THUMB_CMC	INDEX_TIP	INDEX_DIP	INDEX_PIP	INDEX_MCP	MIDDLE_TIP	MIDDLE_DIP	MIDDLE_PIP	MIDDLE_MCP	RING_TIP	RING_DIP	RING_PIP	RING_MCP	PINKY_TIP	PINKY_DIP	PINKY_PIP	PINKY_MCP	WRIST
X1	Y1	Z1	X2	Y2	Z2	X3	Y3	Z3	X4	Y4	Z4	X5	Y5	Z5	X6	Y6	Z6	X7	Y7	Z7	X8	Y8	Z8	X9	Y9	Z9	X10	Y10	Z10	X11	Y11	Z11	X12	Y12	Z12	X13	Y13	Z13	X14	Y14	Z14	X15	Y15	Z15	X16	Y16	Z16	X17	Y17	Z17	X18	Y18	Z18	X19	Y19	Z19	X20	Y20	Z20	X21	Y21	Z21
29	0.9666666666666667	0.02492289924621582	-0.02849250030517578	0.9308499755859375	0.019230600357055663	-0.01793659973144531	0.9565369873046875	0.02862459945678711	-0.00219648003578186	0.982344970703125	0.010948599815368653	0.022830400466918945	0.9959119873046876	0.034138099670410156	-0.11915799713134766	0.9644450073242188	0.03192169952392578	-0.09771579742431641	0.9742670288085937	0.027992900848388673	-0.0777874984741211	0.9842379760742187	0.017548200607299804	-0.04358700180053711	1.004739990234375	0.018986900329589843	-0.023466899871826173	0.9758779907226562	0.02156319999694824	-0.04004040145874024	0.9608499755859375	0.010021499633789063	-0.0648386001586914	0.9660150146484375	-0.009480059623718262	-0.04599169921875	1.0048900146484374	0.00319975996017456	-0.017600099563598634	0.9597579956054687	0.0034773800373077393	-0.03409400177001953	0.9481619873046875	-0.008727069854736327	-0.05756869888305664	0.9541400146484375	-0.025011800765991212	-0.03627190017700195	0.9870859985351562	-0.04696849822998047	-0.09457270050048829	0.9527550048828125	-0.043211101531982425	-0.07283619689941406	0.9560770263671875	-0.04036360168457031	-0.054303001403808594	0.9611279907226562	-0.03577880096435547	-0.02413990020751953	0.9694409790039062	-0.01830620002746582	0.031001800537109374	1.0242099609375
30	1.0	0.025048700332641602	-0.028183799743652344	0.9307930297851562	0.019247800827026366	-0.017630800247192383	0.9564539794921875	0.028618799209594727	-0.002065690040588379	0.9823330078125	0.010883399963378906	0.023112300872802735	0.9959099731445312	0.03368999862670898	-0.11842600250244141	0.9630980224609375	0.0314015007019043	-0.09716950225830077	0.973427978515625	0.027537599563598632	-0.07740049743652344	0.98372900390625	0.017020299911499025	-0.04329180145263672	1.00472998046875	0.0196156005859375	-0.02335639953613281	0.9750709838867188	0.021297199249267578	-0.039782798767089844	0.9605440063476562	0.009577610015869141	-0.06469290161132812	0.9659429931640625	-0.010239700317382812	-0.04565650177001953	1.0048499755859375	0.0032314200401306154	-0.017036300659179687	0.9595819702148437	0.003359770059585571	-0.03365940093994141	0.9478709716796875	-0.009023019790649414	-0.05716270065307617	0.9540850219726562	-0.025243900299072267	-0.03589419937133789	0.9868660278320313	-0.04693280029296875	-0.09391539764404297	0.951822998046875	-0.04328519821166992	-0.07221720123291016	0.9554749755859375	-0.04055630111694336	-0.0537943000793457	0.9607100219726562	-0.035979400634765624	-0.02369700050354004	0.9693909912109375	-0.018423900604248047	0.03133379936218262	1.02456005859375
31	1.0333333333333334	0.025643299102783203	-0.02752090072631836	0.9306320190429688	0.020002099990844728	-0.01705999946594238	0.9562459716796875	0.02894409942626953	-0.00165880000591278	0.9825490112304688	0.010707300186157226	0.023353200912475586	0.996302001953125	0.03248740005493164	-0.11736199951171875	0.9614609985351562	0.030268299102783204	-0.09649400329589844	0.9725189819335938	0.0264778995513916	-0.07708879852294923	0.983625	0.01670009994506836	-0.04303820037841797	1.0046900024414063	0.019753900527954102	-0.02291469955444336	0.9743629760742187	0.02112070083618164	-0.03960639953613281	0.9604840087890625	0.008739800453186035	-0.0643030014038086	0.9655170288085938	-0.010503800392150878	-0.045226200103759766	1.004719970703125	0.00382433009147644	-0.01593120002746582	0.9588930053710938	0.00339778995513916	-0.03281480026245117	0.9476160278320312	-0.009255729675292968	-0.056513801574707034	0.9536270141601563	-0.02565530014038086	-0.03518000030517578	0.9868209838867188	-0.04597029876708984	-0.0925374984741211	0.9488809814453125	-0.042875198364257815	-0.07089969635009766	0.9535349731445313	-0.04052460098266602	-0.05261970138549805	0.9597780151367188	-0.036384201049804686	-0.022597600936889648	0.9694299926757812	-0.018688499450683595	0.03178339958190918	1.024949951171875
32	1.0666666666666667	0.027772199630737304	-0.025897300720214844	0.9303259887695312	0.02173889923095703	-0.01597939968109131	0.9562410278320312	0.02976490020751953	-0.0008836820125579831	0.982968994140625	0.010642399787902832	0.02380550003051758	0.9970770263671875	0.031261199951171874	-0.11628500366210938	0.9595850219726563	0.029000200271606446	-0.09597920227050781	0.97152197265625	0.025506000518798828	-0.07670169830322265	0.98339599609375	0.016569499969482423	-0.04289009857177734	1.0048599853515625	0.020856500625610352	-0.022535100936889648	0.9734249877929687	0.02092729949951172	-0.03940060043334961	0.95989599609375	0.008003080368041992	-0.06422229766845704	0.9651790161132813	-0.010764100074768067	-0.04483480072021485	1.004239990234375	0.005518620014190674	-0.014373800277709962	0.9562990112304688	0.0032978599071502683	-0.032384300231933595	0.9464840087890625	-0.00986808967590332	-0.05605630111694336	0.95314599609375	-0.026163799285888672	-0.03447549819946289	0.9868619995117187	-0.04553200149536133	-0.0903948974609375	0.9447239990234375	-0.04303950119018555	-0.06903260040283203	0.9510830078125	-0.04116339874267578	-0.05123920059204102	0.9587830200195312	-0.03714369964599609	-0.021677299499511717	0.9699210205078125	-0.019027000427246095	0.03206790161132812	1.025449951171875
33	1.1	0.03219649887084961	-0.02323159980773926	0.9303259887695312	0.02484679985046387	-0.014183199882507325	0.9566820068359375	0.031478500366210936	9.537950158119201e-05	0.9842009887695312	0.010957200050354004	0.023979400634765623	0.9984619750976562	0.03062019920349121	-0.11472599792480469	0.9571439819335937	0.0282992000579834	-0.09514179992675781	0.970114990234375	0.025024999618530275	-0.07642410278320312	0.9825750122070313	0.016775600433349608	-0.042946300506591796	1.0042999877929688	0.02322170066833496	-0.022671100616455078	0.969614013671875	0.02076569938659668	-0.040563201904296874	0.957552978515625	0.007215620040893555	-0.0645019989013672	0.9642830200195313	-0.010908599853515624	-0.044668399810791015	1.002780029296875	0.008254960060119628	-0.014535300254821778	0.950197021484375	0.002665090084075927	-0.03395600128173828	0.9438889770507812	-0.011455900192260742	-0.056818801879882815	0.9530819702148438	-0.026505300521850586	-0.03443360137939453	0.9861710205078125	-0.04464749908447266	-0.08562699890136719	0.9364920043945313	-0.04363449859619141	-0.06550959777832031	0.9467160034179688	-0.042779499053955075	-0.04908240127563476	0.9573590087890625	-0.03888740158081055	-0.021218599319458006	0.9714019775390625	-0.019071399688720705	0.03215060043334961	1.0264100341796876
